<svg width="26" height="26" viewBox="0 0 26 26" fill="none" xmlns="http://www.w3.org/2000/svg">
<g clip-path="url(#clip0_1_96)">
<path d="M18 5.75C18.5523 5.75 19 6.19772 19 6.75V19.25C19 19.8023 18.5523 20.25 18 20.25H8C7.44772 20.25 7 19.8023 7 19.25V6.75C7 6.19772 7.44772 5.75 8 5.75H18ZM9 18.25H17V7.75H14.4141L15.707 9.04297C15.993 9.32897 16.0786 9.75914 15.9238 10.1328C15.769 10.5064 15.4044 10.75 15 10.75H11C10.5956 10.75 10.231 10.5064 10.0762 10.1328C9.92139 9.75914 10.007 9.32897 10.293 9.04297L11.5859 7.75H9V18.25Z" fill="black" fill-opacity="0.7"/>
<circle cx="13" cy="13" r="12.95" stroke="black" stroke-opacity="0.7" stroke-width="0.1"/>
</g>
<defs>
<clipPath id="clip0_1_96">
<rect width="26" height="26" fill="white"/>
</clipPath>
</defs>
</svg>
